HIERARCHY
ROOT Hips
{
	OFFSET	0.00	0.00	0.00
	CHANNELS 6 Xposition Yposition Zposition Zrotation Xrotation Yrotation
	JOINT LeftUpLeg
	{
		OFFSET	 0.126116	-0.065224	 0.014019
		CHANNELS 3 Zrotation Xrotation Yrotation
		JOINT LeftLeg
		{
			OFFSET	 0.000000	 0.569914	 0.000000
			CHANNELS 3 Zrotation Xrotation Yrotation
			JOINT LeftFoot
			{
				OFFSET	 0.000000	 0.544423	 0.000000
				CHANNELS 3 Zrotation Xrotation Yrotation
				JOINT LeftToeBase
				{
					OFFSET	 0.000000	 0.207117	 0.000000
					CHANNELS 3 Zrotation Xrotation Yrotation
					End Site
					{
						OFFSET	 0.000000	 0.207117	 0.000000
					}
				}
			}
		}
	}
	JOINT RightUpLeg
	{
		OFFSET	-0.124023	-0.065224	 0.008373
		CHANNELS 3 Zrotation Xrotation Yrotation
		JOINT RightLeg
		{
			OFFSET	 0.000000	 0.570047	 0.000000
			CHANNELS 3 Zrotation Xrotation Yrotation
			JOINT RightFoot
			{
				OFFSET	 0.000000	 0.544354	 0.000000
				CHANNELS 3 Zrotation Xrotation Yrotation
				JOINT RightToeBase
				{
					OFFSET	 0.000000	 0.207540	 0.000000
					CHANNELS 3 Zrotation Xrotation Yrotation
					End Site
					{
						OFFSET	 0.000000	 0.207540	 0.000000
					}
				}
			}
		}
	}
	JOINT Spine
	{
		OFFSET	 0.000184	 0.117403	 0.007763
		CHANNELS 3 Zrotation Xrotation Yrotation
		JOINT Spine1
		{
			OFFSET	 0.000000	 0.137269	 0.000000
			CHANNELS 3 Zrotation Xrotation Yrotation
			JOINT Spine2
			{
				OFFSET	 0.000000	 0.156879	 0.000000
				CHANNELS 3 Zrotation Xrotation Yrotation
				JOINT LeftShoulder
				{
					OFFSET	 0.080501	 0.160143	 0.002496
					CHANNELS 3 Zrotation Xrotation Yrotation
					JOINT LeftArm
					{
						OFFSET	 0.000000	 0.164363	 0.000000
						CHANNELS 3 Zrotation Xrotation Yrotation
						JOINT LeftForeArm
						{
							OFFSET	 0.000000	 0.364576	 0.000000
							CHANNELS 3 Zrotation Xrotation Yrotation
							JOINT LeftHand
							{
								OFFSET	 0.000000	 0.360812	 0.000000
								CHANNELS 3 Zrotation Xrotation Yrotation
								JOINT LeftHandIndex1
								{
									OFFSET	 0.000000	 0.086006	 0.000000
									CHANNELS 3 Zrotation Xrotation Yrotation
									JOINT LeftHandIndex2
									{
										OFFSET	 0.000000	 0.047237	 0.000000
										CHANNELS 3 Zrotation Xrotation Yrotation
										JOINT LeftHandIndex3
										{
											OFFSET	-0.004284	 0.038165	 0.000551
											CHANNELS 3 Zrotation Xrotation Yrotation
											End Site
											{
												OFFSET	-0.004284	 0.038165	 0.000551
											}
										}
									}
								}
							}
						}
					}
				}
				JOINT Neck
				{
					OFFSET	 0.000000	 0.176489	 0.000000
					CHANNELS 3 Zrotation Xrotation Yrotation
					JOINT Head
					{
						OFFSET	 0.000000	 0.077941	 0.001747
						CHANNELS 3 Zrotation Xrotation Yrotation
						End Site
						{
							OFFSET	 0.000000	 0.077941	 0.001747
						}
					}
				}
				JOINT RightShoulder
				{
					OFFSET	-0.080363	 0.159706	-0.000306
					CHANNELS 3 Zrotation Xrotation Yrotation
					JOINT RightArm
					{
						OFFSET	 0.000000	 0.164196	 0.000000
						CHANNELS 3 Zrotation Xrotation Yrotation
						JOINT RightForeArm
						{
							OFFSET	 0.000000	 0.365611	 0.000000
							CHANNELS 3 Zrotation Xrotation Yrotation
							JOINT RightHand
							{
								OFFSET	 0.000000	 0.360648	 0.000000
								CHANNELS 3 Zrotation Xrotation Yrotation
								JOINT RightHandIndex1
								{
									OFFSET	 0.000000	 0.069977	 0.000000
									CHANNELS 3 Zrotation Xrotation Yrotation
									JOINT RightHandIndex2
									{
										OFFSET	 0.000000	 0.052305	 0.000000
										CHANNELS 3 Zrotation Xrotation Yrotation
										JOINT RightHandIndex3
										{
											OFFSET	 0.009002	 0.042196	 0.000782
											CHANNELS 3 Zrotation Xrotation Yrotation
											End Site
											{
												OFFSET	 0.009002	 0.042196	 0.000782
											}
										}
									}
								}
							}
						}
					}
				}
			}
		}
	}
}
MOTION
Frames:    4
Frame Time: 0.03333334
-0.019315	 1.267564	-0.017576	 1.388471	-0.936199	 176.240400	-160.174900	 12.998240	-36.363890	 4.974556	-18.040940	 3.388731	-3.091546	 56.290970	-0.075343	 1.150967	 26.539680	-2.655287	 169.820800	 7.371153	 36.023140	-2.176977	-26.628120	 10.085690	 16.742370	 71.572590	-13.216040	-1.339078	 29.027320	 2.732015	 1.990377	 5.524082	-13.157360	-1.271065	 5.542528	 2.559300	 2.021210	-5.066361	-0.907577	-108.012900	 4.478785	 92.740050	 59.585720	 22.173590	-15.905000	 28.482220	-0.221980	 26.160470	-9.005401	 4.055086	 39.291260	 0.792667	 15.327360	-0.339272	-5.868721	 20.348470	 2.250211	 5.232473	 2.038258	-0.212745	 3.864190	-7.870002	-1.079086	-0.214627	-6.377823	 1.111801	 116.113600	 16.383360	-97.292190	 13.922640	 41.161690	-20.536500	-40.410210	-0.552962	-26.426070	-2.991964	-7.540860	-54.114880	-2.375956	 4.231110	 0.894025	 12.477360	 22.031400	-4.951307	-8.497194	 12.717920	-0.501253
-0.004215	 1.270069	-0.002212	 1.373861	-0.154693	 173.204700	-159.931900	 10.104140	-39.514750	 3.905156	-14.349260	 0.309019	-7.374649	 53.478440	 4.512450	 1.153474	 26.573720	-2.656282	 170.439900	 8.119691	 34.150670	-2.214836	-27.025800	 8.797122	 10.333260	 71.111780	-8.213526	-1.328475	 28.889190	 2.727417	 4.630363	 4.094295	-32.943480	 0.094458	 5.085449	 1.323557	 1.660007	-4.836205	-0.377491	-109.886600	 5.134739	 92.745510	 52.748320	 18.635580	-14.063400	 27.407510	-0.218990	 25.080780	-0.606240	 25.817230	 33.703550	 0.614401	 10.859470	-0.328061	-5.913117	 15.823740	 1.759220	 5.067253	-1.713406	-0.292530	 3.578237	-7.777826	-0.493799	-0.716525	-6.105121	 2.669108	 118.714900	 13.863940	-96.873600	 9.709245	 38.596080	-14.845060	-36.958000	-0.482193	-25.282800	 3.015713	 16.230100	-57.802940	-2.387913	 4.355129	 0.907222	 12.492150	 22.247680	-5.003022	-8.499033	 12.920080	-0.514014
-0.000300	 1.268738	 0.006042	 1.530605	 0.282179	 171.864200	-159.323900	 9.843843	-40.981170	 4.104827	-15.049300	-0.062585	-8.323114	 53.385240	 5.209307	 1.156451	 26.614030	-2.657458	 170.461300	 8.739379	 33.355700	-2.336522	-28.284910	 8.068844	 7.936475	 71.153230	-6.170787	-1.314602	 28.708100	 2.721440	 5.419531	 3.625599	-36.648830	 0.601082	 4.626917	 0.757298	 1.512985	-4.384454	 0.036111	-111.424100	 5.728933	 92.802220	 49.279830	 18.647040	-13.828550	 21.550080	-0.219810	 18.774110	 3.559089	 50.231280	 28.943590	 0.540030	 8.710695	-0.335158	-5.948352	 13.647070	 1.525426	 4.986468	-3.502394	-0.334467	 3.373577	-7.519510	 0.052164	-1.061930	-5.847022	 3.425148	 120.867200	 12.068170	-96.581610	 8.365572	 36.485960	-12.168650	-36.051220	-0.664068	-19.055670	 17.759920	 37.238520	-59.837770	-2.379441	 4.528500	 0.909669	 12.509280	 22.494100	-5.062101	-8.499905	 13.017730	-0.520177
-0.004619	 1.263924	 0.007641	 1.837789	 0.446049	 172.057000	-158.242900	 11.552810	-40.837690	 5.256110	-18.988040	 2.050033	-6.508073	 55.465190	 2.548113	 1.159843	 26.659830	-2.658794	 170.169400	 9.056312	 33.318890	-2.495779	-29.888570	 7.828471	 8.504218	 71.742000	-6.236883	-1.297860	 28.488890	 2.714285	 4.421423	 5.013096	-21.238260	 0.510560	 4.132889	 0.814301	 1.482829	-3.704489	 0.345817	-112.651300	 6.263483	 92.899460	 50.019540	 20.608890	-14.986110	 11.561650	-0.216189	 8.018059	-6.277018	 60.095630	 28.699490	 0.557676	 8.668308	-0.349287	-5.949165	 13.602710	 1.520665	 4.986175	-3.508791	-0.334622	 3.241228	-7.110928	 0.560356	-1.261062	-5.595492	 3.452537	 122.606900	 10.923530	-96.453650	 5.681544	 36.197480	-9.924206	-28.981540	-0.804081	-8.271363	 22.295330	 39.159230	-50.083110	-2.352474	 4.745774	 0.902283	 12.528590	 22.766700	-5.127667	-8.499929	 13.020410	-0.520344
